<svg xmlns="http://www.w3.org/2000/svg" width="460" height="280" viewBox="0 0 460 280">
  <defs>
    <linearGradient id="bg" x1="0%" y1="0%" x2="100%" y2="100%">
      <stop offset="0%" style="stop-color:#0a1628"/>
      <stop offset="50%" style="stop-color:#0d2137"/>
      <stop offset="100%" style="stop-color:#0e2f4a"/>
    </linearGradient>
    <linearGradient id="wave1" x1="0%" y1="0%" x2="100%" y2="0%">
      <stop offset="0%" style="stop-color:#0288d1;stop-opacity:0.8"/>
      <stop offset="100%" style="stop-color:#0097a7;stop-opacity:0.8"/>
    </linearGradient>
  </defs>

  <rect width="460" height="280" fill="url(#bg)"/>
  <g stroke="rgba(255,255,255,0.04)" stroke-width="1">
    <line x1="0" y1="56" x2="460" y2="56"/>
    <line x1="0" y1="112" x2="460" y2="112"/>
    <line x1="0" y1="168" x2="460" y2="168"/>
    <line x1="0" y1="224" x2="460" y2="224"/>
    <line x1="92" y1="0" x2="92" y2="280"/>
    <line x1="230" y1="0" x2="230" y2="280"/>
    <line x1="368" y1="0" x2="368" y2="280"/>
  </g>

  <!-- Top bar -->
  <rect x="0" y="0" width="460" height="38" fill="rgba(0,0,0,0.4)"/>
  <circle cx="20" cy="19" r="5" fill="#ff5f57"/>
  <circle cx="36" cy="19" r="5" fill="#ffbd2e"/>
  <circle cx="52" cy="19" r="5" fill="#28ca41"/>
  <rect x="70" y="10" width="220" height="18" rx="9" fill="rgba(255,255,255,0.08)"/>
  <text x="85" y="23" font-family="sans-serif" font-size="9" fill="rgba(255,255,255,0.45)">Customer Care Call Summarizer · AI</text>

  <!-- Title -->
  <text x="230" y="68" font-family="sans-serif" font-size="16" font-weight="700" fill="white" text-anchor="middle">Customer Care Call Summary</text>

  <!-- Audio waveform (left side) -->
  <rect x="24" y="82" width="170" height="80" rx="8" fill="rgba(2,136,209,0.1)" stroke="rgba(2,136,209,0.3)" stroke-width="1"/>
  <text x="109" y="97" font-family="sans-serif" font-size="8" font-weight="700" fill="rgba(2,136,209,0.8)" text-anchor="middle">📞 LIVE CALL AUDIO</text>
  <!-- Waveform bars -->
  <g fill="url(#wave1)">
    <rect x="34" y="118" width="4" height="20" rx="2"/>
    <rect x="42" y="110" width="4" height="36" rx="2"/>
    <rect x="50" y="122" width="4" height="14" rx="2"/>
    <rect x="58" y="106" width="4" height="42" rx="2"/>
    <rect x="66" y="114" width="4" height="26" rx="2"/>
    <rect x="74" y="108" width="4" height="38" rx="2"/>
    <rect x="82" y="118" width="4" height="18" rx="2"/>
    <rect x="90" y="112" width="4" height="30" rx="2"/>
    <rect x="98" y="120" width="4" height="16" rx="2"/>
    <rect x="106" y="105" width="4" height="46" rx="2"/>
    <rect x="114" y="116" width="4" height="24" rx="2"/>
    <rect x="122" y="110" width="4" height="36" rx="2"/>
    <rect x="130" y="122" width="4" height="12" rx="2"/>
    <rect x="138" y="108" width="4" height="40" rx="2"/>
    <rect x="146" y="118" width="4" height="20" rx="2"/>
    <rect x="154" y="114" width="4" height="28" rx="2"/>
    <rect x="162" y="120" width="4" height="16" rx="2"/>
    <rect x="170" y="110" width="4" height="36" rx="2" opacity="0.5"/>
  </g>
  <text x="109" y="154" font-family="sans-serif" font-size="7.5" fill="rgba(255,255,255,0.35)" text-anchor="middle">Pinecone Embeddings · NLP Analysis</text>

  <!-- Arrow -->
  <g stroke="rgba(255,255,255,0.2)" stroke-width="1.5" stroke-dasharray="4,3">
    <line x1="194" y1="122" x2="216" y2="122"/>
  </g>
  <polygon points="214,119 220,122 214,125" fill="rgba(255,255,255,0.2)"/>

  <!-- AI Processing box -->
  <rect x="216" y="82" width="100" height="80" rx="8" fill="rgba(124,58,237,0.12)" stroke="rgba(124,58,237,0.35)" stroke-width="1"/>
  <text x="266" y="100" font-family="sans-serif" font-size="8" font-weight="700" fill="rgba(156,39,176,0.9)" text-anchor="middle">🧠 AI ENGINE</text>
  <text x="266" y="116" font-family="sans-serif" font-size="7" fill="rgba(255,255,255,0.5)" text-anchor="middle">Classification</text>
  <rect x="226" y="120" width="80" height="6" rx="3" fill="rgba(124,58,237,0.4)"/>
  <text x="266" y="134" font-family="sans-serif" font-size="7" fill="rgba(255,255,255,0.5)" text-anchor="middle">Summarization</text>
  <rect x="226" y="138" width="60" height="6" rx="3" fill="rgba(124,58,237,0.3)"/>
  <text x="266" y="152" font-family="sans-serif" font-size="7" fill="rgba(255,255,255,0.5)" text-anchor="middle">Sentiment</text>
  <rect x="226" y="155" width="70" height="5" rx="2" fill="rgba(124,58,237,0.2)"/>

  <!-- Arrow -->
  <g stroke="rgba(255,255,255,0.2)" stroke-width="1.5" stroke-dasharray="4,3">
    <line x1="316" y1="122" x2="338" y2="122"/>
  </g>
  <polygon points="336,119 342,122 336,125" fill="rgba(255,255,255,0.2)"/>

  <!-- Alert / Summary box -->
  <rect x="338" y="82" width="98" height="80" rx="8" fill="rgba(255,87,34,0.1)" stroke="rgba(255,87,34,0.35)" stroke-width="1"/>
  <text x="387" y="100" font-family="sans-serif" font-size="8" font-weight="700" fill="rgba(255,112,67,0.9)" text-anchor="middle">🔔 ALERT</text>
  <rect x="348" y="106" width="78" height="5" rx="2" fill="rgba(255,112,67,0.3)"/>
  <rect x="348" y="116" width="60" height="5" rx="2" fill="rgba(255,112,67,0.2)"/>
  <rect x="348" y="126" width="70" height="5" rx="2" fill="rgba(255,112,67,0.2)"/>
  <!-- Priority badge -->
  <rect x="348" y="138" width="50" height="14" rx="4" fill="rgba(255,59,59,0.3)"/>
  <text x="373" y="149" font-family="sans-serif" font-size="8" font-weight="700" fill="#ff5252" text-anchor="middle">URGENT</text>

  <!-- Category tags -->
  <rect x="24" y="173" width="412" height="40" rx="6" fill="rgba(255,255,255,0.03)" stroke="rgba(255,255,255,0.07)" stroke-width="1"/>
  <text x="40" y="188" font-family="sans-serif" font-size="8" fill="rgba(255,255,255,0.35)">Detected:</text>
  <rect x="90" y="178" width="60" height="16" rx="4" fill="rgba(255,59,59,0.2)"/>
  <text x="120" y="190" font-family="sans-serif" font-size="8" font-weight="700" fill="#ff5252" text-anchor="middle">😠 Frustrated</text>
  <rect x="158" y="178" width="70" height="16" rx="4" fill="rgba(255,152,0,0.2)"/>
  <text x="193" y="190" font-family="sans-serif" font-size="8" font-weight="700" fill="#ffa726" text-anchor="middle">📦 Delivery Issue</text>
  <rect x="236" y="178" width="72" height="16" rx="4" fill="rgba(2,136,209,0.2)"/>
  <text x="272" y="190" font-family="sans-serif" font-size="8" font-weight="700" fill="#29b6f6" text-anchor="middle">🛒 Order #4821</text>
  <rect x="316" y="178" width="60" height="16" rx="4" fill="rgba(40,202,65,0.2)"/>
  <text x="346" y="190" font-family="sans-serif" font-size="8" font-weight="700" fill="#28ca41" text-anchor="middle">✅ Resolved</text>

  <!-- Tech pills -->
  <g font-family="monospace" font-size="9" font-weight="700">
    <rect x="24" y="222" width="50" height="18" rx="4" fill="rgba(3,169,244,0.2)" stroke="rgba(3,169,244,0.5)" stroke-width="1"/>
    <text x="49" y="235" fill="#29b6f6" text-anchor="middle">Python</text>
    <rect x="80" y="222" width="56" height="18" rx="4" fill="rgba(124,58,237,0.2)" stroke="rgba(124,58,237,0.5)" stroke-width="1"/>
    <text x="108" y="235" fill="#a78bfa" text-anchor="middle">Pinecone</text>
    <rect x="142" y="222" width="38" height="18" rx="4" fill="rgba(255,152,0,0.2)" stroke="rgba(255,152,0,0.5)" stroke-width="1"/>
    <text x="161" y="235" fill="#ffa726" text-anchor="middle">NLP</text>
    <rect x="186" y="222" width="58" height="18" rx="4" fill="rgba(255,87,34,0.2)" stroke="rgba(255,87,34,0.5)" stroke-width="1"/>
    <text x="215" y="235" fill="#ff7043" text-anchor="middle">Streamlit</text>
    <rect x="250" y="222" width="56" height="18" rx="4" fill="rgba(0,188,212,0.2)" stroke="rgba(0,188,212,0.5)" stroke-width="1"/>
    <text x="278" y="235" fill="#26c6da" text-anchor="middle">OpenAI</text>
    <rect x="312" y="222" width="80" height="18" rx="4" fill="rgba(76,175,80,0.2)" stroke="rgba(76,175,80,0.5)" stroke-width="1"/>
    <text x="352" y="235" fill="#66bb6a" text-anchor="middle">Embeddings</text>
  </g>

  <rect x="0" y="250" width="460" height="30" fill="rgba(0,0,0,0.3)"/>
  <text x="230" y="268" font-family="sans-serif" font-size="9" fill="rgba(255,255,255,0.3)" text-anchor="middle">Real-time call analysis · Sentiment detection · Priority alerting · Auto-categorisation</text>
</svg>
