<svg xmlns="http://www.w3.org/2000/svg" width="460" height="280" viewBox="0 0 460 280">
  <defs>
    <linearGradient id="bg" x1="0%" y1="0%" x2="100%" y2="100%">
      <stop offset="0%" style="stop-color:#0d1f2d"/>
      <stop offset="50%" style="stop-color:#0a2a3a"/>
      <stop offset="100%" style="stop-color:#0c3547"/>
    </linearGradient>
  </defs>
  <rect width="460" height="280" fill="url(#bg)"/>
  <g stroke="rgba(255,255,255,0.04)" stroke-width="1">
    <line x1="0" y1="56" x2="460" y2="56"/>
    <line x1="0" y1="140" x2="460" y2="140"/>
    <line x1="0" y1="224" x2="460" y2="224"/>
    <line x1="153" y1="0" x2="153" y2="280"/>
    <line x1="307" y1="0" x2="307" y2="280"/>
  </g>

  <!-- Top bar -->
  <rect x="0" y="0" width="460" height="38" fill="rgba(0,0,0,0.4)"/>
  <circle cx="20" cy="19" r="5" fill="#ff5f57"/>
  <circle cx="36" cy="19" r="5" fill="#ffbd2e"/>
  <circle cx="52" cy="19" r="5" fill="#28ca41"/>
  <rect x="70" y="10" width="180" height="18" rx="9" fill="rgba(255,255,255,0.08)"/>
  <text x="85" y="23" font-family="sans-serif" font-size="9" fill="rgba(255,255,255,0.45)">Support Chatbot · yoursite.com</text>
  <rect x="390" y="11" width="56" height="16" rx="4" fill="rgba(40,202,65,0.2)"/>
  <circle cx="400" cy="19" r="3" fill="#28ca41"/>
  <text x="407" y="23" font-family="sans-serif" font-size="9" font-weight="700" fill="#28ca41">Online</text>

  <!-- Title -->
  <text x="230" y="68" font-family="sans-serif" font-size="17" font-weight="700" fill="white" text-anchor="middle">Website Support Chatbot</text>

  <!-- Chat window -->
  <rect x="100" y="80" width="260" height="152" rx="10" fill="rgba(255,255,255,0.04)" stroke="rgba(255,255,255,0.1)" stroke-width="1"/>

  <!-- Chat header -->
  <rect x="100" y="80" width="260" height="28" rx="10" fill="rgba(0,188,212,0.2)"/>
  <rect x="100" y="94" width="260" height="14" fill="rgba(0,188,212,0.2)"/>
  <circle cx="118" cy="94" r="8" fill="rgba(0,188,212,0.6)"/>
  <text x="118" y="98" font-family="sans-serif" font-size="10" text-anchor="middle">🤖</text>
  <text x="134" y="90" font-family="sans-serif" font-size="9" font-weight="700" fill="white">SupportBot</text>
  <text x="134" y="102" font-family="sans-serif" font-size="7" fill="rgba(255,255,255,0.5)">Always online · Powered by AI</text>

  <!-- Bot message 1 -->
  <rect x="110" y="116" width="140" height="24" rx="6" fill="rgba(0,188,212,0.2)"/>
  <text x="120" y="126" font-family="sans-serif" font-size="8" fill="rgba(255,255,255,0.85)">👋 Hi! How can I help you</text>
  <text x="120" y="136" font-family="sans-serif" font-size="8" fill="rgba(255,255,255,0.85)">today?</text>

  <!-- User message -->
  <rect x="210" y="148" width="138" height="18" rx="6" fill="rgba(255,112,67,0.25)"/>
  <text x="220" y="161" font-family="sans-serif" font-size="8" fill="rgba(255,255,255,0.85)">Where is my order #4821?</text>

  <!-- Bot message 2 -->
  <rect x="110" y="174" width="155" height="28" rx="6" fill="rgba(0,188,212,0.2)"/>
  <text x="120" y="184" font-family="sans-serif" font-size="8" fill="rgba(255,255,255,0.85)">📦 Order #4821 is out for</text>
  <text x="120" y="196" font-family="sans-serif" font-size="8" fill="rgba(255,255,255,0.85)">delivery. ETA: Today 5PM</text>

  <!-- Typing indicator -->
  <rect x="110" y="210" width="50" height="16" rx="8" fill="rgba(255,255,255,0.07)"/>
  <circle cx="123" cy="218" r="3" fill="rgba(255,255,255,0.4)"/>
  <circle cx="133" cy="218" r="3" fill="rgba(255,255,255,0.4)"/>
  <circle cx="143" cy="218" r="3" fill="rgba(255,255,255,0.4)"/>

  <!-- Input bar -->
  <rect x="100" y="224" width="260" height="8" fill="rgba(0,0,0,0.2)"/>
  <rect x="100" y="224" width="260" height="8" rx="8" fill="rgba(255,255,255,0.05)" stroke="rgba(255,255,255,0.08)" stroke-width="1"/>

  <!-- Tech pills -->
  <g font-family="monospace" font-size="9" font-weight="700">
    <rect x="24" y="244" width="50" height="18" rx="4" fill="rgba(3,169,244,0.2)" stroke="rgba(3,169,244,0.5)" stroke-width="1"/>
    <text x="49" y="257" fill="#29b6f6" text-anchor="middle">Python</text>
    <rect x="80" y="244" width="38" height="18" rx="4" fill="rgba(255,152,0,0.2)" stroke="rgba(255,152,0,0.5)" stroke-width="1"/>
    <text x="99" y="257" fill="#ffa726" text-anchor="middle">NLP</text>
    <rect x="124" y="244" width="58" height="18" rx="4" fill="rgba(255,87,34,0.2)" stroke="rgba(255,87,34,0.5)" stroke-width="1"/>
    <text x="153" y="257" fill="#ff7043" text-anchor="middle">Streamlit</text>
    <rect x="188" y="244" width="56" height="18" rx="4" fill="rgba(0,188,212,0.2)" stroke="rgba(0,188,212,0.5)" stroke-width="1"/>
    <text x="216" y="257" fill="#26c6da" text-anchor="middle">OpenAI</text>
    <rect x="250" y="244" width="80" height="18" rx="4" fill="rgba(124,58,237,0.2)" stroke="rgba(124,58,237,0.5)" stroke-width="1"/>
    <text x="290" y="257" fill="#a78bfa" text-anchor="middle">Conv. AI</text>
    <rect x="336" y="244" width="100" height="18" rx="4" fill="rgba(76,175,80,0.2)" stroke="rgba(76,175,80,0.5)" stroke-width="1"/>
    <text x="386" y="257" fill="#66bb6a" text-anchor="middle">24/7 Support</text>
  </g>

  <rect x="0" y="270" width="460" height="10" fill="rgba(0,0,0,0.3)"/>
</svg>
